<?xml version="1.0" encoding="utf-8"?>
<!-- Generator: Adobe Illustrator 22.0.0, SVG Export Plug-In . SVG Version: 6.00 Build 0)  -->
<svg version="1.1"
	 id="svg2" xmlns:cc="http://creativecommons.org/ns#" xmlns:dc="http://purl.org/dc/elements/1.1/" xmlns:inkscape="http://www.inkscape.org/namespaces/inkscape" xmlns:rdf="http://www.w3.org/1999/02/22-rdf-syntax-ns#" xmlns:sodipodi="http://sodipodi.sourceforge.net/DTD/sodipodi-0.dtd" xmlns:svg="http://www.w3.org/2000/svg"
	 xmlns="http://www.w3.org/2000/svg" xmlns:xlink="http://www.w3.org/1999/xlink" x="0px" y="0px" viewBox="0 0 500 500"
	 style="enable-background:new 0 0 500 500;" xml:space="preserve">
<style type="text/css">
	.st0{fill:#F48024;}
	.st1{opacity:0.3;enable-background:new    ;}
	.st2{fill:#FFFFFF;}
</style>
<path id="rect2989-174" class="st0" d="M0,0v500h500V0H0z"/>
<polygon class="st1" points="312.4,50 390.3,214.7 500,324.4 500,237.6 "/>
<polygon class="st1" points="500,337 384,221 223.7,134.3 343.5,254.1 178.9,213.7 263.5,298.4 156,297.5 224,365.5 175,365.7 
	116.5,307.2 80.9,450 130.9,500 500,500 "/>
<g>
	<polygon class="st2" points="366,414.4 366,307.2 402,307.2 402,450 80.9,450 80.9,307.2 116.5,307.2 116.5,414.4 	"/>
	<path class="st2" d="M156,297.5L330.9,334l7.3-35.1l-174.9-36.5L156,297.5z M178.9,213.7l161.8,75.5l15.1-32.2l-161.8-76
		L178.9,213.7z M223.7,134.3l137.4,114L384,221L246.6,107L223.7,134.3z M312.4,50l-28.7,21.4l106.7,143.2l28.7-21.4L312.4,50z
		 M152.1,378.4h178.3v-35.6H152.1V378.4z"/>
</g>
</svg>
